<?xml version="1.0" encoding="utf-8"?>
<!-- Generator: Adobe Illustrator 15.1.0, SVG Export Plug-In . SVG Version: 6.00 Build 0)  -->
<!DOCTYPE svg PUBLIC "-//W3C//DTD SVG 1.1//EN" "http://www.w3.org/Graphics/SVG/1.1/DTD/svg11.dtd">
<svg version="1.1" id="Capa_1" xmlns="http://www.w3.org/2000/svg" xmlns:xlink="http://www.w3.org/1999/xlink" x="0px" y="0px"
	 width="275.868px" height="244.632px" viewBox="0 0 275.868 244.632" enable-background="new 0 0 275.868 244.632"
	 xml:space="preserve">
<g>
	<g>
		<g>
			<path fill="#002E52" d="M123.773,112.5h-13.692V63.892H91.516V50.199h25.412c3.781,0,6.846,3.066,6.846,6.847V112.5z"/>
			<path fill="#002E52" d="M135.844,122.084c-3.025,0-5.477-2.451-5.477-5.476v-90.37c0-3.024,2.452-5.477,5.477-5.477
				c3.024,0,5.477,2.452,5.477,5.477v90.37C141.321,119.634,138.869,122.084,135.844,122.084"/>
			<path fill="#002E52" d="M150.232,150.154H79.339l18.714-45.542c1.103-2.683,3.718-4.435,6.619-4.435h38.403
				c3.952,0,7.156,3.204,7.156,7.156V150.154z"/>
			<g opacity="0.22">
				<g>
					<path fill="#86D0F4" d="M150.232,150.154H79.339l18.714-45.542c1.103-2.683,3.718-4.435,6.619-4.435h38.403
						c3.952,0,7.156,3.204,7.156,7.156V150.154z"/>
				</g>
			</g>
			<rect x="86.722" y="47.804" fill="#0070BA" width="17.9" height="18.484"/>
			<path fill="#002E52" d="M206.119,191.573c0,29.304-23.755,53.059-53.058,53.059H52.866c-29.303,0-53.059-23.755-53.059-53.059
				c0-29.302,23.755-53.057,53.059-53.057h153.252V191.573z"/>
			<path fill="#002E52" d="M206.119,191.573c0,29.304-23.755,53.059-53.058,53.059H52.866c-29.303,0-53.059-23.755-53.059-53.059
				c0-29.302,23.755-53.057,53.059-53.057h153.252V191.573z"/>
			<path fill="#002E52" d="M249.273,164.946c0,14.651-11.877,26.528-26.529,26.528h-38.509v-53.058h38.509
				C237.396,138.417,249.273,150.295,249.273,164.946"/>
			<g opacity="0.31">
				<g>
					<defs>
						<rect id="SVGID_1_" x="63.219" y="148.369" width="60.588" height="60.589"/>
					</defs>
					<clipPath id="SVGID_2_">
						<use xlink:href="#SVGID_1_"  overflow="visible"/>
					</clipPath>
					<path clip-path="url(#SVGID_2_)" fill="#86D0F4" d="M123.808,178.664c0,16.731-13.563,30.294-30.294,30.294
						c-16.731,0-30.294-13.563-30.294-30.294c0-16.732,13.563-30.295,30.294-30.295
						C110.245,148.369,123.808,161.932,123.808,178.664"/>
				</g>
			</g>
			<g opacity="0.31">
				<g>
					<defs>
						<rect id="SVGID_3_" x="128.666" y="148.98" width="60.588" height="60.588"/>
					</defs>
					<clipPath id="SVGID_4_">
						<use xlink:href="#SVGID_3_"  overflow="visible"/>
					</clipPath>
					<path clip-path="url(#SVGID_4_)" fill="#86D0F4" d="M189.254,179.273c0,16.732-13.563,30.295-30.294,30.295
						s-30.294-13.563-30.294-30.295c0-16.73,13.563-30.293,30.294-30.293S189.254,162.543,189.254,179.273"/>
				</g>
			</g>
			<path fill="#0070BA" d="M117.723,178.664c0,13.369-10.839,24.208-24.209,24.208s-24.209-10.839-24.209-24.208
				c0-13.371,10.839-24.209,24.209-24.209S117.723,165.293,117.723,178.664"/>
			<path fill="#999999" d="M110.376,178.664c0,9.313-7.55,16.861-16.862,16.861c-9.313,0-16.863-7.549-16.863-16.861
				c0-9.313,7.55-16.863,16.863-16.863C102.826,161.801,110.376,169.351,110.376,178.664"/>
			<path fill="#E6E6E6" d="M93.514,161.801c9.312,0,16.862,7.55,16.862,16.863c0,9.313-7.55,16.861-16.862,16.861
				c-9.313,0-16.863-7.549-16.863-16.861C76.651,169.351,84.201,161.801,93.514,161.801 M93.514,160.355
				c-10.095,0-18.308,8.213-18.308,18.309c0,10.095,8.213,18.307,18.308,18.307s18.307-8.212,18.307-18.307
				C111.82,168.568,103.608,160.355,93.514,160.355"/>
			<g opacity="0.38">
				<g>
					<defs>
						<rect id="SVGID_5_" x="76.651" y="161.801" width="21.686" height="21.687"/>
					</defs>
					<clipPath id="SVGID_6_">
						<use xlink:href="#SVGID_5_"  overflow="visible"/>
					</clipPath>
					<path clip-path="url(#SVGID_6_)" fill="#FFFFFF" d="M93.514,161.801c-0.453,0-0.9,0.023-1.344,0.059L76.71,177.32
						c-0.035,0.443-0.059,0.891-0.059,1.344c0,1.676,0.249,3.294,0.704,4.823l20.982-20.981
						C96.808,162.05,95.19,161.801,93.514,161.801"/>
				</g>
			</g>
			<g opacity="0.38">
				<g>
					<defs>
						<rect id="SVGID_7_" x="78.09" y="163.239" width="24.036" height="24.036"/>
					</defs>
					<clipPath id="SVGID_8_">
						<use xlink:href="#SVGID_7_"  overflow="visible"/>
					</clipPath>
					<path clip-path="url(#SVGID_8_)" fill="#FFFFFF" d="M79.017,187.275l23.108-23.108c-0.578-0.345-1.178-0.653-1.798-0.928
						L78.09,185.478C78.364,186.098,78.673,186.697,79.017,187.275"/>
				</g>
			</g>
			<path fill="#E6E6E6" d="M95.75,157.465c0,1.236-1.001,2.236-2.236,2.236c-1.234,0-2.235-1-2.235-2.236
				c0-1.234,1.001-2.235,2.235-2.235C94.749,155.229,95.75,156.23,95.75,157.465"/>
			<path fill="#E6E6E6" d="M95.75,199.861c0,1.234-1.001,2.236-2.236,2.236c-1.234,0-2.235-1.002-2.235-2.236
				s1.001-2.236,2.235-2.236C94.749,197.625,95.75,198.627,95.75,199.861"/>
			<path fill="#E6E6E6" d="M84.851,159.188c0.618,1.069,0.251,2.438-0.818,3.055s-2.437,0.25-3.054-0.818
				c-0.618-1.069-0.251-2.438,0.818-3.055C82.866,157.752,84.233,158.118,84.851,159.188"/>
			<path fill="#E6E6E6" d="M106.049,195.904c0.618,1.068,0.251,2.436-0.818,3.054c-1.069,0.616-2.437,0.251-3.054-0.819
				c-0.618-1.068-0.251-2.438,0.818-3.053C104.064,194.468,105.431,194.834,106.049,195.904"/>
			<path fill="#E6E6E6" d="M76.273,166.128c1.069,0.618,1.435,1.984,0.818,3.054c-0.617,1.07-1.985,1.436-3.054,0.818
				c-1.069-0.616-1.436-1.984-0.818-3.054C73.837,165.877,75.204,165.51,76.273,166.128"/>
			<path fill="#E6E6E6" d="M112.989,187.326c1.069,0.617,1.436,1.984,0.818,3.055c-0.618,1.068-1.985,1.436-3.054,0.818
				c-1.07-0.619-1.436-1.986-0.818-3.055C110.553,187.074,111.92,186.709,112.989,187.326"/>
			<path fill="#E6E6E6" d="M72.316,176.428c1.234,0,2.236,1.001,2.236,2.236c0,1.234-1.001,2.234-2.236,2.234
				c-1.235,0-2.236-1-2.236-2.234C70.08,177.429,71.081,176.428,72.316,176.428"/>
			<path fill="#E6E6E6" d="M114.711,176.428c1.235,0,2.236,1.001,2.236,2.236c0,1.234-1.001,2.234-2.236,2.234s-2.236-1-2.236-2.234
				C112.476,177.429,113.477,176.428,114.711,176.428"/>
			<path fill="#E6E6E6" d="M74.038,187.326c1.07-0.617,2.437-0.252,3.055,0.818c0.617,1.068,0.25,2.436-0.818,3.055
				c-1.07,0.617-2.437,0.25-3.054-0.818C72.602,189.311,72.968,187.943,74.038,187.326"/>
			<path fill="#E6E6E6" d="M110.753,166.128c1.07-0.618,2.437-0.251,3.054,0.818c0.618,1.069,0.251,2.438-0.818,3.054
				c-1.069,0.617-2.437,0.252-3.055-0.818C109.318,168.112,109.685,166.746,110.753,166.128"/>
			<path fill="#E6E6E6" d="M80.978,195.904c0.618-1.07,1.985-1.437,3.054-0.818c1.069,0.615,1.436,1.984,0.818,3.053
				c-0.617,1.07-1.984,1.436-3.054,0.819C80.727,198.34,80.361,196.973,80.978,195.904"/>
			<path fill="#E6E6E6" d="M102.176,159.188c0.618-1.069,1.984-1.436,3.054-0.818c1.069,0.617,1.436,1.985,0.818,3.055
				c-0.617,1.068-1.985,1.436-3.054,0.818C101.925,161.625,101.559,160.257,102.176,159.188"/>
			<path fill="#0070BA" d="M183.169,179.273c0,13.371-10.839,24.21-24.209,24.21s-24.209-10.839-24.209-24.21
				c0-13.37,10.839-24.209,24.209-24.209S183.169,165.903,183.169,179.273"/>
			<path fill="#999999" d="M175.823,179.273c0,9.313-7.55,16.863-16.862,16.863c-9.313,0-16.862-7.55-16.862-16.863
				c0-9.313,7.549-16.861,16.862-16.861C168.273,162.412,175.823,169.961,175.823,179.273"/>
			<path fill="#E6E6E6" d="M158.96,162.412c9.313,0,16.862,7.549,16.862,16.861c0,9.313-7.549,16.863-16.862,16.863
				s-16.862-7.55-16.862-16.863C142.098,169.961,149.647,162.412,158.96,162.412 M158.96,160.967
				c-10.095,0-18.308,8.213-18.308,18.307c0,10.096,8.213,18.309,18.308,18.309s18.308-8.213,18.308-18.309
				C177.268,169.18,169.055,160.967,158.96,160.967"/>
			<g opacity="0.38">
				<g>
					<defs>
						<rect id="SVGID_9_" x="142.098" y="162.412" width="21.686" height="21.686"/>
					</defs>
					<clipPath id="SVGID_10_">
						<use xlink:href="#SVGID_9_"  overflow="visible"/>
					</clipPath>
					<path clip-path="url(#SVGID_10_)" fill="#FFFFFF" d="M158.96,162.412c-0.454,0-0.901,0.023-1.345,0.059l-15.459,15.459
						c-0.035,0.444-0.059,0.892-0.059,1.344c0,1.678,0.248,3.295,0.704,4.824l20.981-20.982
						C162.254,162.66,160.637,162.412,158.96,162.412"/>
				</g>
			</g>
			<g opacity="0.38">
				<g>
					<defs>
						<rect id="SVGID_11_" x="143.536" y="163.851" width="24.037" height="24.036"/>
					</defs>
					<clipPath id="SVGID_12_">
						<use xlink:href="#SVGID_11_"  overflow="visible"/>
					</clipPath>
					<path clip-path="url(#SVGID_12_)" fill="#FFFFFF" d="M144.463,187.887l23.109-23.109c-0.578-0.344-1.179-0.652-1.799-0.927
						l-22.236,22.237C143.811,186.708,144.12,187.309,144.463,187.887"/>
				</g>
			</g>
			<path fill="#E6E6E6" d="M161.196,158.076c0,1.234-1,2.236-2.235,2.236s-2.235-1.002-2.235-2.236s1-2.236,2.235-2.236
				S161.196,156.842,161.196,158.076"/>
			<path fill="#E6E6E6" d="M161.196,200.473c0,1.234-1,2.235-2.235,2.235s-2.235-1.001-2.235-2.235c0-1.235,1-2.236,2.235-2.236
				S161.196,199.237,161.196,200.473"/>
			<path fill="#E6E6E6" d="M150.297,159.799c0.617,1.068,0.252,2.436-0.818,3.053c-1.069,0.618-2.436,0.252-3.054-0.818
				c-0.618-1.068-0.251-2.436,0.818-3.053C148.313,158.362,149.68,158.729,150.297,159.799"/>
			<path fill="#E6E6E6" d="M171.495,196.514c0.619,1.07,0.252,2.438-0.818,3.055c-1.068,0.617-2.436,0.251-3.053-0.818
				s-0.252-2.438,0.818-3.054C169.51,195.079,170.877,195.445,171.495,196.514"/>
			<path fill="#E6E6E6" d="M141.72,166.738c1.069,0.618,1.436,1.984,0.817,3.055c-0.617,1.069-1.984,1.436-3.054,0.818
				c-1.069-0.617-1.435-1.984-0.818-3.055C139.284,166.487,140.651,166.121,141.72,166.738"/>
			<path fill="#E6E6E6" d="M178.436,187.938c1.069,0.617,1.436,1.984,0.818,3.053c-0.617,1.07-1.984,1.437-3.055,0.818
				c-1.068-0.617-1.436-1.984-0.818-3.054C176,187.686,177.367,187.319,178.436,187.938"/>
			<path fill="#E6E6E6" d="M137.763,177.038c1.235,0,2.236,1.001,2.236,2.235c0,1.235-1.001,2.236-2.236,2.236
				s-2.237-1.001-2.237-2.236C135.526,178.039,136.528,177.038,137.763,177.038"/>
			<path fill="#E6E6E6" d="M180.159,177.038c1.234,0,2.236,1.001,2.236,2.235c0,1.235-1.002,2.236-2.236,2.236
				s-2.236-1.001-2.236-2.236C177.922,178.039,178.924,177.038,180.159,177.038"/>
			<path fill="#E6E6E6" d="M139.485,187.938c1.068-0.618,2.436-0.252,3.054,0.817c0.617,1.069,0.251,2.437-0.818,3.054
				c-1.069,0.618-2.438,0.252-3.054-0.818C138.049,189.922,138.415,188.555,139.485,187.938"/>
			<path fill="#E6E6E6" d="M176.2,166.738c1.07-0.617,2.438-0.251,3.055,0.818c0.617,1.07,0.251,2.438-0.818,3.055
				s-2.438,0.251-3.054-0.818C174.764,168.723,175.131,167.356,176.2,166.738"/>
			<path fill="#E6E6E6" d="M146.425,196.514c0.617-1.068,1.984-1.435,3.054-0.817c1.069,0.616,1.436,1.984,0.818,3.054
				s-1.984,1.436-3.054,0.818S145.807,197.584,146.425,196.514"/>
			<path fill="#E6E6E6" d="M167.624,159.799c0.617-1.069,1.984-1.437,3.053-0.818c1.07,0.617,1.438,1.984,0.818,3.053
				c-0.616,1.07-1.984,1.437-3.053,0.818C167.372,162.234,167.006,160.867,167.624,159.799"/>
			<path fill="#999999" d="M48.206,138.732c-27.119,2.361-48.398,25.109-48.398,52.841s21.28,50.481,48.398,52.843V138.732z"/>
			<g opacity="0.39">
				<g>
					<defs>
						<rect id="SVGID_13_" x="52.999" y="138.51" width="2.738" height="105.912"/>
					</defs>
					<clipPath id="SVGID_14_">
						<use xlink:href="#SVGID_13_"  overflow="visible"/>
					</clipPath>
					
						<rect x="1.417" y="190.438" transform="matrix(0.0065 1 -1 0.0065 245.4776 135.8622)" clip-path="url(#SVGID_14_)" fill="#86D0F4" width="105.902" height="2.054"/>
				</g>
			</g>
			<path fill="#E6E6E6" d="M52.313,141.939c0,0.803-0.651,1.455-1.455,1.455c-0.804,0-1.455-0.652-1.455-1.455
				c0-0.805,0.651-1.455,1.455-1.455C51.663,140.484,52.313,141.135,52.313,141.939"/>
			<path fill="#E6E6E6" d="M52.313,149.575c0,0.804-0.651,1.454-1.455,1.454c-0.804,0-1.455-0.65-1.455-1.454
				s0.651-1.454,1.455-1.454C51.663,148.121,52.313,148.771,52.313,149.575"/>
			<path fill="#E6E6E6" d="M52.313,157.211c0,0.805-0.651,1.455-1.455,1.455c-0.804,0-1.455-0.65-1.455-1.455
				c0-0.804,0.651-1.455,1.455-1.455C51.663,155.756,52.313,156.407,52.313,157.211"/>
			<path fill="#E6E6E6" d="M52.313,164.848c0,0.803-0.651,1.455-1.455,1.455c-0.804,0-1.455-0.652-1.455-1.455
				c0-0.805,0.651-1.455,1.455-1.455C51.663,163.393,52.313,164.043,52.313,164.848"/>
			<path fill="#E6E6E6" d="M52.313,172.483c0,0.804-0.651,1.454-1.455,1.454c-0.804,0-1.455-0.65-1.455-1.454
				s0.651-1.454,1.455-1.454C51.663,171.029,52.313,171.68,52.313,172.483"/>
			<path fill="#E6E6E6" d="M52.313,180.119c0,0.805-0.651,1.455-1.455,1.455c-0.804,0-1.455-0.65-1.455-1.455
				c0-0.803,0.651-1.455,1.455-1.455C51.663,178.664,52.313,179.316,52.313,180.119"/>
			<path fill="#E6E6E6" d="M52.313,187.756c0,0.804-0.651,1.455-1.455,1.455c-0.804,0-1.455-0.651-1.455-1.455
				s0.651-1.455,1.455-1.455C51.663,186.301,52.313,186.952,52.313,187.756"/>
			<path fill="#E6E6E6" d="M52.313,195.393c0,0.804-0.651,1.454-1.455,1.454c-0.804,0-1.455-0.65-1.455-1.454
				c0-0.805,0.651-1.455,1.455-1.455C51.663,193.938,52.313,194.588,52.313,195.393"/>
			<path fill="#E6E6E6" d="M52.313,203.027c0,0.805-0.651,1.456-1.455,1.456c-0.804,0-1.455-0.651-1.455-1.456
				c0-0.803,0.651-1.455,1.455-1.455C51.663,201.572,52.313,202.225,52.313,203.027"/>
			<path fill="#E6E6E6" d="M52.313,210.664c0,0.805-0.651,1.455-1.455,1.455c-0.804,0-1.455-0.65-1.455-1.455
				c0-0.804,0.651-1.455,1.455-1.455C51.663,209.209,52.313,209.86,52.313,210.664"/>
			<path fill="#E6E6E6" d="M52.313,218.301c0,0.804-0.651,1.454-1.455,1.454c-0.804,0-1.455-0.65-1.455-1.454
				c0-0.805,0.651-1.455,1.455-1.455C51.663,216.846,52.313,217.496,52.313,218.301"/>
			<path fill="#E6E6E6" d="M52.313,225.937c0,0.803-0.651,1.455-1.455,1.455c-0.804,0-1.455-0.652-1.455-1.455
				c0-0.804,0.651-1.454,1.455-1.454C51.663,224.482,52.313,225.133,52.313,225.937"/>
			<path fill="#E6E6E6" d="M52.313,233.572c0,0.805-0.651,1.455-1.455,1.455c-0.804,0-1.455-0.65-1.455-1.455
				c0-0.804,0.651-1.455,1.455-1.455C51.663,232.117,52.313,232.769,52.313,233.572"/>
			<path fill="#E6E6E6" d="M52.313,241.209c0,0.804-0.651,1.455-1.455,1.455c-0.804,0-1.455-0.651-1.455-1.455
				c0-0.805,0.651-1.455,1.455-1.455C51.663,239.754,52.313,240.404,52.313,241.209"/>
			<path fill="#E6E6E6" d="M59.16,141.939c0,0.803-0.651,1.455-1.455,1.455s-1.455-0.652-1.455-1.455
				c0-0.805,0.651-1.455,1.455-1.455S59.16,141.135,59.16,141.939"/>
			<path fill="#E6E6E6" d="M59.16,149.575c0,0.804-0.651,1.454-1.455,1.454s-1.455-0.65-1.455-1.454s0.651-1.454,1.455-1.454
				S59.16,148.771,59.16,149.575"/>
			<path fill="#E6E6E6" d="M59.16,157.211c0,0.805-0.651,1.455-1.455,1.455s-1.455-0.65-1.455-1.455
				c0-0.804,0.651-1.455,1.455-1.455S59.16,156.407,59.16,157.211"/>
			<path fill="#E6E6E6" d="M59.16,164.848c0,0.803-0.651,1.455-1.455,1.455s-1.455-0.652-1.455-1.455
				c0-0.805,0.651-1.455,1.455-1.455S59.16,164.043,59.16,164.848"/>
			<path fill="#E6E6E6" d="M59.16,172.483c0,0.804-0.651,1.454-1.455,1.454s-1.455-0.65-1.455-1.454s0.651-1.454,1.455-1.454
				S59.16,171.68,59.16,172.483"/>
			<path fill="#E6E6E6" d="M59.16,180.119c0,0.805-0.651,1.455-1.455,1.455s-1.455-0.65-1.455-1.455
				c0-0.803,0.651-1.455,1.455-1.455S59.16,179.316,59.16,180.119"/>
			<path fill="#E6E6E6" d="M59.16,187.756c0,0.804-0.651,1.455-1.455,1.455s-1.455-0.651-1.455-1.455s0.651-1.455,1.455-1.455
				S59.16,186.952,59.16,187.756"/>
			<path fill="#E6E6E6" d="M59.16,195.393c0,0.804-0.651,1.454-1.455,1.454s-1.455-0.65-1.455-1.454
				c0-0.805,0.651-1.455,1.455-1.455S59.16,194.588,59.16,195.393"/>
			<path fill="#E6E6E6" d="M59.16,203.027c0,0.805-0.651,1.456-1.455,1.456s-1.455-0.651-1.455-1.456
				c0-0.803,0.651-1.455,1.455-1.455S59.16,202.225,59.16,203.027"/>
			<path fill="#E6E6E6" d="M59.16,210.664c0,0.805-0.651,1.455-1.455,1.455s-1.455-0.65-1.455-1.455
				c0-0.804,0.651-1.455,1.455-1.455S59.16,209.86,59.16,210.664"/>
			<path fill="#E6E6E6" d="M59.16,218.301c0,0.804-0.651,1.454-1.455,1.454s-1.455-0.65-1.455-1.454
				c0-0.805,0.651-1.455,1.455-1.455S59.16,217.496,59.16,218.301"/>
			<path fill="#E6E6E6" d="M59.16,225.937c0,0.803-0.651,1.455-1.455,1.455s-1.455-0.652-1.455-1.455
				c0-0.804,0.651-1.454,1.455-1.454S59.16,225.133,59.16,225.937"/>
			<path fill="#E6E6E6" d="M59.16,233.572c0,0.805-0.651,1.455-1.455,1.455s-1.455-0.65-1.455-1.455
				c0-0.804,0.651-1.455,1.455-1.455S59.16,232.769,59.16,233.572"/>
			<path fill="#E6E6E6" d="M59.16,241.209c0,0.804-0.651,1.455-1.455,1.455s-1.455-0.651-1.455-1.455
				c0-0.805,0.651-1.455,1.455-1.455S59.16,240.404,59.16,241.209"/>
			<path fill="#E6E6E6" d="M256.038,219.913c-0.805,0-1.455-0.651-1.455-1.454c0-0.805,0.65-1.455,1.455-1.455
				c0.803,0,1.454,0.65,1.454,1.455C257.492,219.262,256.84,219.913,256.038,219.913"/>
			<path fill="#E6E6E6" d="M248.401,219.913c-0.805,0-1.455-0.651-1.455-1.454c0-0.805,0.65-1.455,1.455-1.455
				c0.803,0,1.455,0.65,1.455,1.455C249.856,219.262,249.204,219.913,248.401,219.913"/>
			<path fill="#E6E6E6" d="M194.948,219.913c-0.804,0-1.455-0.651-1.455-1.454c0-0.805,0.651-1.455,1.455-1.455
				c0.805,0,1.455,0.65,1.455,1.455C196.403,219.262,195.752,219.913,194.948,219.913"/>
			<path fill="#E6E6E6" d="M187.311,219.913c-0.803,0-1.454-0.651-1.454-1.454c0-0.805,0.651-1.455,1.454-1.455
				c0.805,0,1.455,0.65,1.455,1.455C188.766,219.262,188.116,219.913,187.311,219.913"/>
			<path fill="#E6E6E6" d="M179.675,219.913c-0.804,0-1.455-0.651-1.455-1.454c0-0.805,0.651-1.455,1.455-1.455
				s1.454,0.65,1.454,1.455C181.129,219.262,180.479,219.913,179.675,219.913"/>
			<path fill="#E6E6E6" d="M172.04,219.913c-0.804,0-1.455-0.651-1.455-1.454c0-0.805,0.651-1.455,1.455-1.455
				s1.454,0.65,1.454,1.455C173.494,219.262,172.843,219.913,172.04,219.913"/>
			<path fill="#E6E6E6" d="M164.403,219.913c-0.803,0-1.455-0.651-1.455-1.454c0-0.805,0.652-1.455,1.455-1.455
				c0.804,0,1.455,0.65,1.455,1.455C165.858,219.262,165.207,219.913,164.403,219.913"/>
			<path fill="#E6E6E6" d="M256.038,226.76c-0.805,0-1.455-0.651-1.455-1.455c0-0.805,0.65-1.455,1.455-1.455
				c0.803,0,1.454,0.65,1.454,1.455C257.492,226.108,256.84,226.76,256.038,226.76"/>
			<path fill="#E6E6E6" d="M248.401,226.76c-0.805,0-1.455-0.651-1.455-1.455c0-0.805,0.65-1.455,1.455-1.455
				c0.803,0,1.455,0.65,1.455,1.455C249.856,226.108,249.204,226.76,248.401,226.76"/>
			<path fill="#E6E6E6" d="M187.311,226.76c-0.803,0-1.454-0.651-1.454-1.455c0-0.805,0.651-1.455,1.454-1.455
				c0.805,0,1.455,0.65,1.455,1.455C188.766,226.108,188.116,226.76,187.311,226.76"/>
			<path fill="#E6E6E6" d="M179.675,226.76c-0.804,0-1.455-0.651-1.455-1.455c0-0.805,0.651-1.455,1.455-1.455
				s1.454,0.65,1.454,1.455C181.129,226.108,180.479,226.76,179.675,226.76"/>
			<path fill="#E6E6E6" d="M172.04,226.76c-0.804,0-1.455-0.651-1.455-1.455c0-0.805,0.651-1.455,1.455-1.455
				s1.454,0.65,1.454,1.455C173.494,226.108,172.843,226.76,172.04,226.76"/>
			<path fill="#E6E6E6" d="M164.403,226.76c-0.803,0-1.455-0.651-1.455-1.455c0-0.805,0.652-1.455,1.455-1.455
				c0.804,0,1.455,0.65,1.455,1.455C165.858,226.108,165.207,226.76,164.403,226.76"/>
			<path fill="#E6E6E6" d="M157.417,219.998c-0.803,0-1.454-0.65-1.454-1.455c0-0.804,0.651-1.454,1.454-1.454
				c0.805,0,1.455,0.65,1.455,1.454C158.872,219.348,158.221,219.998,157.417,219.998"/>
			<path fill="#E6E6E6" d="M149.781,219.998c-0.804,0-1.455-0.65-1.455-1.455c0-0.804,0.651-1.454,1.455-1.454
				s1.454,0.65,1.454,1.454C151.235,219.348,150.584,219.998,149.781,219.998"/>
			<path fill="#E6E6E6" d="M142.145,219.998c-0.805,0-1.455-0.65-1.455-1.455c0-0.804,0.65-1.454,1.455-1.454
				c0.804,0,1.455,0.65,1.455,1.454C143.6,219.348,142.949,219.998,142.145,219.998"/>
			<path fill="#E6E6E6" d="M134.509,219.998c-0.804,0-1.455-0.65-1.455-1.455c0-0.804,0.651-1.454,1.455-1.454
				c0.803,0,1.455,0.65,1.455,1.454C135.963,219.348,135.312,219.998,134.509,219.998"/>
			<path fill="#E6E6E6" d="M126.873,219.998c-0.804,0-1.455-0.65-1.455-1.455c0-0.804,0.65-1.454,1.455-1.454
				c0.804,0,1.455,0.65,1.455,1.454C128.328,219.348,127.676,219.998,126.873,219.998"/>
			<path fill="#E6E6E6" d="M119.236,219.998c-0.804,0-1.455-0.65-1.455-1.455c0-0.804,0.651-1.454,1.455-1.454
				s1.455,0.65,1.455,1.454C120.691,219.348,120.04,219.998,119.236,219.998"/>
			<path fill="#E6E6E6" d="M111.6,219.998c-0.803,0-1.455-0.65-1.455-1.455c0-0.804,0.651-1.454,1.455-1.454
				c0.805,0,1.455,0.65,1.455,1.454C113.055,219.348,112.404,219.998,111.6,219.998"/>
			<path fill="#E6E6E6" d="M103.964,219.998c-0.804,0-1.455-0.65-1.455-1.455c0-0.804,0.651-1.454,1.455-1.454
				c0.803,0,1.455,0.65,1.455,1.454C105.419,219.348,104.768,219.998,103.964,219.998"/>
			<path fill="#E6E6E6" d="M96.328,219.998c-0.804,0-1.455-0.65-1.455-1.455c0-0.804,0.651-1.454,1.455-1.454
				c0.804,0,1.455,0.65,1.455,1.454C97.783,219.348,97.132,219.998,96.328,219.998"/>
			<path fill="#E6E6E6" d="M88.692,219.998c-0.804,0-1.455-0.65-1.455-1.455c0-0.804,0.651-1.454,1.455-1.454
				s1.455,0.65,1.455,1.454C90.147,219.348,89.496,219.998,88.692,219.998"/>
			<path fill="#E6E6E6" d="M81.056,219.998c-0.804,0-1.455-0.65-1.455-1.455c0-0.804,0.651-1.454,1.455-1.454
				s1.455,0.65,1.455,1.454C82.51,219.348,81.859,219.998,81.056,219.998"/>
			<path fill="#E6E6E6" d="M73.42,219.998c-0.804,0-1.455-0.65-1.455-1.455c0-0.804,0.651-1.454,1.455-1.454
				c0.804,0,1.455,0.65,1.455,1.454C74.875,219.348,74.224,219.998,73.42,219.998"/>
			<path fill="#E6E6E6" d="M65.784,219.998c-0.804,0-1.455-0.65-1.455-1.455c0-0.804,0.651-1.454,1.455-1.454
				c0.804,0,1.455,0.65,1.455,1.454C67.238,219.348,66.587,219.998,65.784,219.998"/>
			<path fill="#E6E6E6" d="M157.417,226.845c-0.803,0-1.454-0.651-1.454-1.454c0-0.805,0.651-1.455,1.454-1.455
				c0.805,0,1.455,0.65,1.455,1.455C158.872,226.193,158.221,226.845,157.417,226.845"/>
			<path fill="#E6E6E6" d="M149.781,226.845c-0.804,0-1.455-0.651-1.455-1.454c0-0.805,0.651-1.455,1.455-1.455
				s1.454,0.65,1.454,1.455C151.235,226.193,150.584,226.845,149.781,226.845"/>
			<path fill="#E6E6E6" d="M142.145,226.845c-0.805,0-1.455-0.651-1.455-1.454c0-0.805,0.65-1.455,1.455-1.455
				c0.804,0,1.455,0.65,1.455,1.455C143.6,226.193,142.949,226.845,142.145,226.845"/>
			<path fill="#E6E6E6" d="M134.509,226.845c-0.804,0-1.455-0.651-1.455-1.454c0-0.805,0.651-1.455,1.455-1.455
				c0.803,0,1.455,0.65,1.455,1.455C135.963,226.193,135.312,226.845,134.509,226.845"/>
			<path fill="#E6E6E6" d="M126.873,226.845c-0.804,0-1.455-0.651-1.455-1.454c0-0.805,0.65-1.455,1.455-1.455
				c0.804,0,1.455,0.65,1.455,1.455C128.328,226.193,127.676,226.845,126.873,226.845"/>
			<path fill="#E6E6E6" d="M119.236,226.845c-0.804,0-1.455-0.651-1.455-1.454c0-0.805,0.651-1.455,1.455-1.455
				s1.455,0.65,1.455,1.455C120.691,226.193,120.04,226.845,119.236,226.845"/>
			<path fill="#E6E6E6" d="M111.6,226.845c-0.803,0-1.455-0.651-1.455-1.454c0-0.805,0.651-1.455,1.455-1.455
				c0.805,0,1.455,0.65,1.455,1.455C113.055,226.193,112.404,226.845,111.6,226.845"/>
			<path fill="#E6E6E6" d="M103.964,226.845c-0.804,0-1.455-0.651-1.455-1.454c0-0.805,0.651-1.455,1.455-1.455
				c0.803,0,1.455,0.65,1.455,1.455C105.419,226.193,104.768,226.845,103.964,226.845"/>
			<path fill="#E6E6E6" d="M96.328,226.845c-0.804,0-1.455-0.651-1.455-1.454c0-0.805,0.651-1.455,1.455-1.455
				c0.804,0,1.455,0.65,1.455,1.455C97.783,226.193,97.132,226.845,96.328,226.845"/>
			<path fill="#E6E6E6" d="M88.692,226.845c-0.804,0-1.455-0.651-1.455-1.454c0-0.805,0.651-1.455,1.455-1.455
				s1.455,0.65,1.455,1.455C90.147,226.193,89.496,226.845,88.692,226.845"/>
			<path fill="#E6E6E6" d="M81.056,226.845c-0.804,0-1.455-0.651-1.455-1.454c0-0.805,0.651-1.455,1.455-1.455
				s1.455,0.65,1.455,1.455C82.51,226.193,81.859,226.845,81.056,226.845"/>
			<path fill="#E6E6E6" d="M73.42,226.845c-0.804,0-1.455-0.651-1.455-1.454c0-0.805,0.651-1.455,1.455-1.455
				c0.804,0,1.455,0.65,1.455,1.455C74.875,226.193,74.224,226.845,73.42,226.845"/>
			<path fill="#E6E6E6" d="M65.784,226.845c-0.804,0-1.455-0.651-1.455-1.454c0-0.805,0.651-1.455,1.455-1.455
				c0.804,0,1.455,0.65,1.455,1.455C67.238,226.193,66.587,226.845,65.784,226.845"/>
			<g opacity="0.39">
				<g>
					<defs>
						<rect id="SVGID_15_" x="-0.191" y="161.801" width="206.31" height="82.831"/>
					</defs>
					<clipPath id="SVGID_16_">
						<use xlink:href="#SVGID_15_"  overflow="visible"/>
					</clipPath>
					<g clip-path="url(#SVGID_16_)">
						<g>
							<defs>
								<rect id="SVGID_17_" x="-0.191" y="161.801" width="206.31" height="82.831"/>
							</defs>
							<clipPath id="SVGID_18_">
								<use xlink:href="#SVGID_17_"  overflow="visible"/>
							</clipPath>
							<path clip-path="url(#SVGID_18_)" d="M153.061,214.859H52.866c-24.131,0-44.486-16.115-50.924-38.167
								c-1.38,4.724-2.135,9.712-2.135,14.881c0,29.304,23.755,53.059,53.059,53.059h100.195c29.303,0,53.058-23.755,53.058-53.059
								v-29.772C206.119,191.104,182.364,214.859,153.061,214.859"/>
						</g>
					</g>
					<polygon clip-path="url(#SVGID_16_)" fill="#86D0F4" points="54.945,223.422 54.935,221.367 197.428,220.684 196.004,222.74 
											"/>
				</g>
			</g>
			<g opacity="0.39">
				<g>
					<defs>
						<rect id="SVGID_19_" x="87.194" y="128.773" width="62.931" height="2.216"/>
					</defs>
					<clipPath id="SVGID_20_">
						<use xlink:href="#SVGID_19_"  overflow="visible"/>
					</clipPath>
					<polygon clip-path="url(#SVGID_20_)" fill="#86D0F4" points="87.194,130.989 88.042,128.926 150.102,128.773 150.125,130.826 
											"/>
				</g>
			</g>
			<path fill="#E6E6E6" d="M147.532,128.088c-0.803,0-1.454-0.65-1.454-1.454s0.651-1.454,1.454-1.454
				c0.805,0,1.455,0.65,1.455,1.454S148.336,128.088,147.532,128.088"/>
			<path fill="#E6E6E6" d="M139.897,128.088c-0.805,0-1.455-0.65-1.455-1.454s0.65-1.454,1.455-1.454
				c0.803,0,1.455,0.65,1.455,1.454S140.7,128.088,139.897,128.088"/>
			<path fill="#E6E6E6" d="M132.26,128.088c-0.804,0-1.456-0.65-1.456-1.454s0.652-1.454,1.456-1.454s1.455,0.65,1.455,1.454
				S133.064,128.088,132.26,128.088"/>
			<path fill="#E6E6E6" d="M124.625,128.088c-0.804,0-1.455-0.65-1.455-1.454s0.651-1.454,1.455-1.454
				c0.804,0,1.454,0.65,1.454,1.454S125.428,128.088,124.625,128.088"/>
			<path fill="#E6E6E6" d="M116.988,128.088c-0.804,0-1.455-0.65-1.455-1.454s0.65-1.454,1.455-1.454
				c0.804,0,1.455,0.65,1.455,1.454S117.792,128.088,116.988,128.088"/>
			<path fill="#E6E6E6" d="M109.352,128.088c-0.804,0-1.455-0.65-1.455-1.454s0.651-1.454,1.455-1.454
				c0.804,0,1.454,0.65,1.454,1.454S110.156,128.088,109.352,128.088"/>
			<path fill="#E6E6E6" d="M101.716,128.088c-0.804,0-1.455-0.65-1.455-1.454s0.651-1.454,1.455-1.454
				c0.804,0,1.455,0.65,1.455,1.454S102.52,128.088,101.716,128.088"/>
			<path fill="#E6E6E6" d="M94.079,128.088c-0.803,0-1.454-0.65-1.454-1.454s0.651-1.454,1.454-1.454
				c0.804,0,1.456,0.65,1.456,1.454S94.883,128.088,94.079,128.088"/>
			<path fill="#E6E6E6" d="M147.532,134.936c-0.803,0-1.454-0.652-1.454-1.455c0-0.805,0.651-1.455,1.454-1.455
				c0.805,0,1.455,0.65,1.455,1.455C148.987,134.283,148.336,134.936,147.532,134.936"/>
			<path fill="#E6E6E6" d="M139.897,134.936c-0.805,0-1.455-0.652-1.455-1.455c0-0.805,0.65-1.455,1.455-1.455
				c0.803,0,1.455,0.65,1.455,1.455C141.352,134.283,140.7,134.936,139.897,134.936"/>
			<path fill="#E6E6E6" d="M132.26,134.936c-0.804,0-1.456-0.652-1.456-1.455c0-0.805,0.652-1.455,1.456-1.455
				s1.455,0.65,1.455,1.455C133.715,134.283,133.064,134.936,132.26,134.936"/>
			<path fill="#E6E6E6" d="M124.625,134.936c-0.804,0-1.455-0.652-1.455-1.455c0-0.805,0.651-1.455,1.455-1.455
				c0.804,0,1.454,0.65,1.454,1.455C126.079,134.283,125.428,134.936,124.625,134.936"/>
			<path fill="#E6E6E6" d="M116.988,134.936c-0.804,0-1.455-0.652-1.455-1.455c0-0.805,0.65-1.455,1.455-1.455
				c0.804,0,1.455,0.65,1.455,1.455C118.443,134.283,117.792,134.936,116.988,134.936"/>
			<path fill="#E6E6E6" d="M109.352,134.936c-0.804,0-1.455-0.652-1.455-1.455c0-0.805,0.651-1.455,1.455-1.455
				c0.804,0,1.454,0.65,1.454,1.455C110.806,134.283,110.156,134.936,109.352,134.936"/>
			<path fill="#E6E6E6" d="M101.716,134.936c-0.804,0-1.455-0.652-1.455-1.455c0-0.805,0.651-1.455,1.455-1.455
				c0.804,0,1.455,0.65,1.455,1.455C103.17,134.283,102.52,134.936,101.716,134.936"/>
			<path fill="#E6E6E6" d="M94.079,134.936c-0.803,0-1.454-0.652-1.454-1.455c0-0.805,0.651-1.455,1.454-1.455
				c0.804,0,1.456,0.65,1.456,1.455C95.534,134.283,94.883,134.936,94.079,134.936"/>
			<path fill="#E6E6E6" d="M86.776,132.066l-1.101,2.668c0.207,0.115,0.515,0.2,0.769,0.2c0.804,0,1.455-0.651,1.455-1.454
				C87.898,132.791,87.418,132.217,86.776,132.066"/>
			<g opacity="0.38">
				<g>
					<defs>
						<rect id="SVGID_21_" x="-0.004" y="138.732" width="48.21" height="48.516"/>
					</defs>
					<clipPath id="SVGID_22_">
						<use xlink:href="#SVGID_21_"  overflow="visible"/>
					</clipPath>
					<path clip-path="url(#SVGID_22_)" fill="#FFFFFF" d="M1.961,176.568c-1.01,3.428-1.668,7.003-1.966,10.68l48.21-48.211v-0.305
						c-3.573,0.311-7.041,0.984-10.376,1.969L1.961,176.568z"/>
				</g>
			</g>
			<g opacity="0.38">
				<g>
					<defs>
						<rect id="SVGID_23_" y="147.752" width="48.206" height="52.515"/>
					</defs>
					<clipPath id="SVGID_24_">
						<use xlink:href="#SVGID_23_"  overflow="visible"/>
					</clipPath>
					<path clip-path="url(#SVGID_24_)" fill="#FFFFFF" d="M0.532,200.267l47.674-47.675v-4.84L0,195.959
						C0.119,197.412,0.298,198.848,0.532,200.267"/>
				</g>
			</g>
			<path fill="#E6E6E6" d="M238.895,164.946c0,8.39-6.801,15.19-15.189,15.19s-15.191-6.801-15.191-15.19s6.803-15.19,15.191-15.19
				S238.895,156.557,238.895,164.946"/>
			<path fill="#0070BA" d="M234.623,164.946c0,6.029-4.888,10.917-10.918,10.917c-6.028,0-10.917-4.888-10.917-10.917
				s4.889-10.917,10.917-10.917C229.735,154.029,234.623,158.917,234.623,164.946"/>
			<path fill="#E6E6E6" d="M250.796,173.955v-18.018l15.435,7.494c0.803,0.39,1.303,1.215,1.277,2.106s-0.572,1.687-1.396,2.03
				L250.796,173.955z"/>
			<path fill="#002E52" d="M259.012,113.167c0,12.656-8.216,49.617-8.216,49.617s-8.216-36.961-8.216-49.617
				s3.68-22.917,8.216-22.917C255.333,90.25,259.012,100.511,259.012,113.167"/>
			<path fill="#002E52" d="M259.012,216.725c0-12.656-8.216-49.616-8.216-49.616s-8.216,36.96-8.216,49.616
				s3.68,22.918,8.216,22.918C255.333,239.643,259.012,229.381,259.012,216.725"/>
			<g opacity="0.37">
				<g>
					<defs>
						<rect id="SVGID_25_" x="242.581" y="165.109" width="24.928" height="74.532"/>
					</defs>
					<clipPath id="SVGID_26_">
						<use xlink:href="#SVGID_25_"  overflow="visible"/>
					</clipPath>
					<path clip-path="url(#SVGID_26_)" d="M250.796,165.109v1.999c0,0-8.216,36.96-8.216,49.617c0,12.656,3.678,22.916,8.216,22.916
						c4.537,0,8.216-10.26,8.216-22.916c0-9.405-4.535-32.227-6.866-43.334l13.967-5.823c0.823-0.344,1.37-1.139,1.396-2.03
						c0.004-0.146-0.011-0.288-0.033-0.429H250.796z"/>
				</g>
			</g>
			<path fill="#0070BA" d="M248.114,176.693c-1.512,0-2.738-1.227-2.738-2.738v-18.018c0-1.512,1.227-2.738,2.738-2.738
				c1.513,0,2.738,1.227,2.738,2.738v18.018C250.852,175.467,249.626,176.693,248.114,176.693"/>
			<g opacity="0.27">
				<g>
					<path fill="#FFFFFF" d="M178.387,222.237c0,2.521-2.044,4.565-4.564,4.565c-2.521,0-4.564-2.044-4.564-4.565
						c0-2.521,2.043-4.563,4.564-4.563C176.343,217.674,178.387,219.717,178.387,222.237"/>
				</g>
			</g>
			<g opacity="0.27">
				<g>
					<path fill="#FFFFFF" d="M1.45,189.912"/>
					<path fill="#FFFFFF" d="M1.45,189.912"/>
				</g>
			</g>
			<path fill="#CCCCCC" d="M107.818,115.187"/>
		</g>
	</g>
	<path fill="#86D0F4" d="M262.618,61.543c0,0.999-0.813,1.81-1.811,1.81c-1.002,0-1.812-0.811-1.812-1.81c0-1,0.81-1.81,1.812-1.81
		C261.805,59.733,262.618,60.543,262.618,61.543"/>
	<path fill="#86D0F4" d="M249.948,53.696c0,2.161-1.751,3.913-3.912,3.913c-2.16,0-3.912-1.751-3.912-3.913
		c0-2.16,1.752-3.911,3.912-3.911C248.197,49.785,249.948,51.536,249.948,53.696"/>
	<path fill="#86D0F4" d="M255.578,35.071c0,1.359-1.101,2.461-2.46,2.461c-1.36,0-2.461-1.102-2.461-2.461s1.101-2.461,2.461-2.461
		C254.477,32.61,255.578,33.712,255.578,35.071"/>
	<path fill="#86D0F4" d="M275.868,39.773c0,1.707-1.385,3.091-3.092,3.091s-3.092-1.384-3.092-3.091s1.385-3.092,3.092-3.092
		S275.868,38.066,275.868,39.773"/>
	<path fill="#86D0F4" d="M268.097,18.36c0,1.513-1.227,2.74-2.74,2.74s-2.741-1.227-2.741-2.74c0-1.514,1.228-2.74,2.741-2.74
		S268.097,16.847,268.097,18.36"/>
	<path fill="#86D0F4" d="M258.848,2.877c0,1.589-1.289,2.878-2.878,2.878s-2.877-1.289-2.877-2.878S254.381,0,255.97,0
		S258.848,1.288,258.848,2.877"/>
	<path fill="#86D0F4" d="M206.206,118.888c0,1.665-1.35,3.015-3.015,3.015s-3.015-1.35-3.015-3.015s1.35-3.015,3.015-3.015
		S206.206,117.223,206.206,118.888"/>
	<path fill="#86D0F4" d="M185.106,105.82c0,3.598-2.917,6.515-6.516,6.515c-3.598,0-6.515-2.917-6.515-6.515
		c0-3.599,2.917-6.516,6.515-6.516C182.189,99.304,185.106,102.221,185.106,105.82"/>
	<path fill="#86D0F4" d="M194.485,74.798c0,2.264-1.836,4.1-4.101,4.1c-2.264,0-4.1-1.835-4.1-4.1c0-2.264,1.836-4.1,4.1-4.1
		C192.649,70.699,194.485,72.535,194.485,74.798"/>
	<path fill="#86D0F4" d="M228.275,82.63c0,2.844-2.306,5.149-5.149,5.149s-5.15-2.305-5.15-5.149c0-2.843,2.307-5.15,5.15-5.15
		S228.275,79.787,228.275,82.63"/>
	<path fill="#86D0F4" d="M215.334,46.967c0,2.521-2.043,4.563-4.564,4.563c-2.521,0-4.564-2.043-4.564-4.563
		s2.044-4.564,4.564-4.564C213.292,42.402,215.334,44.446,215.334,46.967"/>
	<path fill="#86D0F4" d="M199.929,21.18c0,2.646-2.146,4.792-4.792,4.792c-2.647,0-4.793-2.146-4.793-4.792
		c0-2.647,2.146-4.792,4.793-4.792C197.784,16.388,199.929,18.532,199.929,21.18"/>
</g>
</svg>
