<?xml version="1.0" encoding="utf-8"?>
<!-- Generator: Adobe Illustrator 15.1.0, SVG Export Plug-In . SVG Version: 6.00 Build 0)  -->
<!DOCTYPE svg PUBLIC "-//W3C//DTD SVG 1.1//EN" "http://www.w3.org/Graphics/SVG/1.1/DTD/svg11.dtd">
<svg version="1.1" id="Capa_1" xmlns="http://www.w3.org/2000/svg" xmlns:xlink="http://www.w3.org/1999/xlink" x="0px" y="0px"
	 width="250.976px" height="194.682px" viewBox="0 0 250.976 194.682" enable-background="new 0 0 250.976 194.682"
	 xml:space="preserve">
<g>
	<g>
		<defs>
			<rect id="SVGID_1_" width="250.976" height="195.299"/>
		</defs>
		<clipPath id="SVGID_2_">
			<use xlink:href="#SVGID_1_"  overflow="visible"/>
		</clipPath>
		<path clip-path="url(#SVGID_2_)" fill="#002E52" d="M245.903,0H5.124C2.295,0,0,2.295,0,5.125v184.433
			c0,2.829,2.295,5.124,5.124,5.124h240.779c2.829,0,5.124-2.295,5.124-5.124V5.125C251.027,2.295,248.732,0,245.903,0L245.903,0z
			 M240.779,10.242v24.635H10.249V10.242H240.779z M10.249,184.434V45.118h230.53v139.315H10.249z M10.249,184.434"/>
	</g>
	<path fill="#86D0F4" d="M32.054,27.681h2.823c2.823,0,5.124-2.289,5.124-5.125c0-2.829-2.301-5.118-5.124-5.118h-2.823
		c-2.823,0-5.118,2.289-5.118,5.118C26.936,25.392,29.231,27.681,32.054,27.681L32.054,27.681z M32.054,27.681"/>
	<path fill="#0070BA" d="M53.147,27.681h2.816c2.829,0,5.124-2.289,5.124-5.125c0-2.829-2.295-5.118-5.124-5.118h-2.816
		c-2.829,0-5.124,2.289-5.124,5.118C48.023,25.392,50.319,27.681,53.147,27.681L53.147,27.681z M53.147,27.681"/>
	<path fill="#002E52" d="M74.235,27.681h2.823c2.823,0,5.118-2.289,5.118-5.125c0-2.829-2.295-5.118-5.118-5.118h-2.823
		c-2.829,0-5.118,2.289-5.118,5.118C69.118,25.392,71.406,27.681,74.235,27.681L74.235,27.681z M74.235,27.681"/>
	<path fill="#0070BA" d="M173.339,96.499c-1.455-10.311-9.236-18.894-19.364-21.354c-2.746-0.668-5.518,1.017-6.185,3.77
		c-0.668,2.747,1.017,5.519,3.77,6.186c6.084,1.481,10.756,6.637,11.633,12.835c0.363,2.556,2.557,4.405,5.068,4.405
		c0.234,0,0.482-0.019,0.718-0.051C171.789,101.896,173.734,99.302,173.339,96.499L173.339,96.499z M173.339,96.499"/>
	<path fill="#0070BA" d="M184.097,128.698c6.224-7.87,9.942-17.794,9.942-28.576c0-25.448-20.706-46.148-46.155-46.148
		c-25.441,0-46.141,20.7-46.141,46.148c0,25.443,20.7,46.142,46.141,46.142c10.986,0,21.076-3.853,29.003-10.28l42.767,39.836
		c0.985,0.915,2.238,1.374,3.49,1.374c1.373,0,2.74-0.554,3.75-1.634c1.927-2.066,1.813-5.31-0.26-7.241L184.097,128.698z
		 M111.992,100.122c0-19.797,16.104-35.899,35.893-35.899c19.798,0,35.907,16.103,35.907,35.899c0,19.798-16.109,35.9-35.907,35.9
		C128.095,136.022,111.992,119.92,111.992,100.122L111.992,100.122z M111.992,100.122"/>
</g>
</svg>
